<svg width="40" height="40" viewBox="0 0 40 40" fill="none" xmlns="http://www.w3.org/2000/svg">
<circle cx="20" cy="20" r="20" fill="#74C9A9"/>
<path d="M27.5 19.5833C27.5029 20.6832 27.2459 21.7682 26.75 22.75C26.162 23.9265 25.2581 24.916 24.1395 25.6077C23.021 26.2995 21.7319 26.6662 20.4167 26.6667C19.3168 26.6695 18.2318 26.4126 17.25 25.9167L12.5 27.5L14.0833 22.75C13.5874 21.7682 13.3305 20.6832 13.3333 19.5833C13.3338 18.2681 13.7005 16.979 14.3923 15.8605C15.084 14.7419 16.0735 13.838 17.25 13.25C18.2318 12.7541 19.3168 12.4971 20.4167 12.5H20.8333C22.5703 12.5958 24.2109 13.329 25.441 14.559C26.671 15.7891 27.4042 17.4297 27.5 19.1667V19.5833Z" stroke="white" stroke-width="1.66667" stroke-linecap="round" stroke-linejoin="round"/>
</svg>
